Patient4_TMGait_0pt4_02_left_10_EMG.mot
version=1
nRows=39
nColumns=33
inDegrees=no
endheader
time	1LAddLong	2LGlutMax	3LGlutMed	4LIliopsoas	5LSemiMemb	6LBicFemLong	7LRecFem	8LVastMed	9LVastLat	10LGasMed	11LTibAnt	12lTibPost	13LPeroneusLong	14LSol	15LExtDigLong	16LFlexDigLong	17RAddLong	18RGlutMax	19RGlutMed	20RIliopsoas	21RSemiMemb	22RBicFemLong	23RRecFem	24RVastMed	25RVastLat	26RGasMed	27RTibAnt	28RTibPost	29RPeroneusLong	30RSol	31RExtDigLong	32RFlexDigLong
14.765	-0.006714	-0.168	-0.035248	0.00885	0.038147	-0.028381	-0.036469	0.001526	-0.002136	-0.026093	0.012207	-0.002747	-0.001221	-0.039978	0.006561	0.005798	0.042419	-0.23453	0.2385	0.11978	0.062256	0.037994	0.23727	-0.15442	0.030823	-0.003052	-0.12787	-0.003052	-0.10757	-0.61386	0.003815	-0.001831
14.766	-0.001068	-0.17807	0.030518	0.014191	0.029144	-0.010529	-0.056915	0.00885	-0.016937	-0.032349	0.009155	-0.005798	-0.013428	-0.054321	0.012054	-0.006714	-0.012817	-0.26901	0.58029	0.031738	-0.054932	0.14191	-0.34088	-0.21973	0.15991	0.010986	-0.58365	0.032043	-0.041809	-0.84595	-0.000305	-0.003967
14.767	-0.01297	-0.2153	0.048676	0.004425	-0.020294	0.02594	-0.057831	0.004578	-0.02655	-0.042419	-0.000916	-0.005188	-0.024109	-0.039825	0.005951	-0.005798	-0.033264	-0.2298	0.18112	0.018616	-0.24124	0.18341	-0.64545	-0.089569	0.29877	0.019836	-1.282	-0.063171	0.033722	-0.25543	0.001678	-0.005341
14.768	-0.000458	-0.21103	0.038605	-0.004883	-0.056763	0.045013	-0.03952	0.007629	-0.02594	-0.044861	0.009308	-0.008087	-0.016479	-0.046387	0.004883	-0.004578	-0.0177	-0.21545	-0.2063	0.000305	-0.39215	0.19653	-0.56061	0.039825	0.25009	0.026245	-0.76004	0.041046	-0.031891	0.099945	-0.00061	-0.00473
14.769	0.006866	-0.16647	-0.028992	-0.009003	-0.034637	0.032043	-0.067596	0.007629	-0.021667	-0.037537	-0.014038	-0.003967	-0.010834	-0.04837	0.010529	0.001221	-0.012054	-0.1889	-0.36606	0.030823	0.032349	0.004883	-0.34729	0.057983	0.16876	0.033264	0.15152	0.012054	0.014801	-0.060577	0.001221	-0.000458
14.77	0.015564	-0.20126	-0.050201	0.005188	-0.082855	0.033112	-0.072937	0.003662	-0.015106	-0.033722	0.005341	-0.006409	-0.036316	-0.058899	0.027924	-0.000458	0.003052	-0.17792	-0.17181	0.03006	0.1738	-0.088196	-0.18295	0.0914	0.093536	0.031891	0.29434	-0.004272	0.017395	-0.081787	0.002136	-0.007019
14.771	0.012817	-0.2182	-0.051117	0.003357	-0.002594	0.031281	-0.094299	0.003967	-0.01709	-0.01709	0.076447	-0.010986	-0.076294	-0.076141	0.051117	0.00473	-0.010681	-0.20889	-0.22568	0.072021	0.13062	-0.090637	-0.15121	0.078583	0.042877	0.0177	0.074463	-0.010376	0.093079	0.045471	-0.006409	-0.000305
14.772	0.019836	-0.19867	-0.090942	0.013428	0.018158	-0.008545	-0.075989	-0.001068	-0.013123	-0.027313	0.11185	-0.007782	-0.076447	-0.087738	0.040588	-0.012054	0.002136	-0.21347	-0.098114	0.10696	0.050659	-0.046539	-0.10971	0.053253	-0.002747	0.005341	0.16739	-0.00824	-0.034943	0.34073	0	-0.007935
14.773	0.016937	-0.18845	-0.086212	0.018311	0.065002	-0.030365	-0.088959	0.006409	-0.001221	-0.030212	0.0914	-0.007019	-0.059509	-0.047302	-0.021057	-0.005798	0.047455	-0.14053	-0.056305	0.11093	0.098877	-0.08194	0.0383	0.023041	-0.058136	-0.005798	-0.13809	-0.006561	-0.088348	0.38483	-0.001831	-0.009155
14.774	0.013275	-0.23453	-0.037994	0.022583	0.081482	0.034027	-0.067139	0.005798	-0.007019	-0.057983	-0.047455	-0.003052	-0.006409	-0.016479	-0.06134	-0.00885	0.052948	-0.14023	-0.06546	0.11078	-0.1062	-0.034485	-0.10712	-0.16022	-0.016937	-0.022583	-0.34607	-0.010529	-0.12741	0.31281	0.001068	-0.014954
14.775	-0.002136	-0.22537	-0.006714	-0.001984	0.003967	0.11536	-0.067139	0.007935	-0.019989	-0.041199	-0.085602	-0.010529	-0.024109	-0.005493	-0.019531	-0.017242	0.064392	-0.17838	0.023346	0.060883	-0.336	-0.027466	-0.098724	-0.10544	-0.054474	-0.018005	-0.44769	-0.010681	-0.003204	0.2092	-0.004883	-0.014648
14.776	-0.006409	-0.24521	-0.00946	0.000763	-0.087433	0.077362	-0.068359	0.010529	-0.020447	-0.041809	-0.044861	-0.01236	-0.04425	-0.028534	-0.015106	-0.010986	0.021057	-0.13107	-0.020142	0.018463	-0.31296	-0.047302	-0.037079	0.022278	-0.016479	-0.006409	-0.43213	-0.004425	0.18082	-0.13275	-0.002289	-0.006561
14.777	-0.003357	-0.21088	-0.026093	0.00351	-0.16815	0.006714	-0.066528	0.009003	-0.014496	-0.046082	-0.018616	-0.011444	-0.050507	-0.008545	-0.003967	-0.010376	-0.050354	-0.12863	-0.066681	0.032043	-0.072327	0.058289	-0.042572	0.14664	-0.01709	-0.011902	-0.14297	-0.004578	0.005188	-0.37582	-0.003204	-0.010834
14.778	0.007172	-0.21088	-0.072174	-0.009613	-0.15289	-0.075531	-0.07309	0.011139	-0.008392	-0.051727	-0.006409	-0.014191	-0.082245	-0.002899	0.006866	-0.018768	-0.083466	-0.11383	-0.16068	-0.024261	-0.26901	0.17548	-0.029907	0.094299	-0.031738	-0.013123	0.091858	-0.003204	0.091553	-0.1918	0	-0.010376
14.779	0.011597	-0.21774	-0.076599	-0.000763	0.057983	-0.083313	-0.076752	0.00412	0.007629	-0.051575	0.003052	-0.009918	-0.10132	-0.038452	0.002441	-0.016327	-0.056	-0.17303	-0.12528	-0.052795	-0.2858	0.12817	-0.034637	0.079498	-0.026245	-0.018463	0.084534	0	0.040436	0.23254	0.003052	-0.011902
14.78	0.018158	-0.22614	-0.051727	-0.00412	0.13062	-0.009308	-0.088806	0.007477	-0.010376	-0.051575	-0.001678	-0.007935	-0.12268	-0.070496	0.007477	-0.002136	-0.013885	-0.14832	-0.49515	-0.05188	-0.057983	-0.007629	0.036163	0.027008	-0.054626	-0.0177	0.14313	-0.008392	-0.13687	0.4686	-0.002747	-0.00824
14.781	0.019226	-0.24155	-0.05661	-0.002136	0.10376	-0.012512	-0.1001	0.007782	-0.001526	-0.051727	0.013123	-0.009918	-0.10208	-0.037079	0.009308	-0.010529	-0.010223	-0.13657	-0.31784	-0.047302	0.082092	-0.017242	0.014954	0.010681	-0.051727	-0.00946	-0.036926	-0.001221	-0.11002	0.26733	-0.000458	-0.015411
14.782	0.013733	-0.20386	-0.081635	-0.002136	0.065918	-0.023499	-0.093079	0.007935	-0.003662	-0.041199	0.009918	-0.006714	-0.087433	-0.041962	0.017242	-0.005798	-0.003967	-0.10132	0.059662	-0.026093	0.18478	-0.015564	0.033264	-0.010223	-0.035858	-0.012054	-0.15762	-0.001984	-0.11993	0.15198	-0.000458	-0.013275
14.783	0.00885	-0.22217	-0.084076	0.019836	0.040741	-0.0383	-0.10986	0.006866	-0.000763	-0.038147	0.009155	-0.009766	-0.05722	-0.059052	0.007782	-0.01236	-0.007019	-0.11276	0.38742	-0.011597	0.44342	0.002594	0.14282	0.072784	0.079956	-0.009766	-0.068054	-0.001984	-0.043793	0.058289	-0.000763	-0.011139
14.784	0.014954	-0.20691	-0.10117	0.005035	0.024261	-0.032501	-0.084229	-0.000305	-0.001373	-0.036926	0.005646	-0.006714	-0.062866	-0.068359	0.006104	-0.002289	-0.009155	-0.10895	0.96359	-0.001526	0.22385	-0.054779	0.26627	0.038147	0.084381	-0.000458	0.20813	-0.00412	-0.10803	0.065002	0.003662	-0.014648
14.785	0.022736	-0.21774	-0.12085	0.003204	0.018768	-0.024872	-0.083008	0.016785	-0.005035	-0.049286	0.020447	-0.013123	-0.078735	-0.066833	0.005035	-0.001526	0.005646	-0.17258	0.39795	-0.037079	0.092163	-0.041504	0.27115	0.049896	0.038147	-0.003052	0.51559	-0.000458	-0.069733	0.099182	0.003967	-0.019073
14.786	0.01297	-0.21027	-0.06424	0.012207	0.008545	0.021973	-0.084991	0.014954	-0.007782	-0.041962	0.033417	-0.01358	-0.054016	-0.058136	0.004883	-0.002289	0.007477	-0.16586	-0.31265	-0.065308	0.057983	-0.003052	0.11246	0.041656	-0.004883	-0.017395	0.29404	-0.003052	-0.087738	0.11368	-0.001678	-0.01236
14.787	0.005493	-0.2356	-0.014496	0.005188	-0.029602	0.026093	-0.11704	0.021057	-0.011139	-0.052948	0.02182	-0.009613	-0.033112	-0.062561	0.000916	-0.006256	0.000763	-0.15503	-0.57541	-0.097656	0.015564	0.018311	-0.052643	0.059509	0.011597	-0.019073	0.18143	-0.001526	-0.10635	0.14267	-0.00412	-0.017242
14.788	0.01297	-0.20279	0.037384	-0.005951	-0.047913	0.028534	-0.092316	0.007477	-0.002899	-0.030518	0.014954	-0.007782	-0.053406	-0.05722	0.005341	-0.007019	0.015564	-0.18158	-0.057526	-0.089569	-0.015106	0.016785	-0.12482	-0.076599	0.00824	-0.028076	0.19745	-0.002594	-0.10971	0.1265	0.000305	-0.007477
14.789	0.009308	-0.21362	-0.009003	-0.00473	-0.069885	0.013885	-0.11704	-0.001831	-0.016327	-0.014954	0.004578	-0.009155	-0.053253	-0.04776	0.001221	0.004272	0.010681	-0.16937	0.22415	0.00061	-0.02121	0.03067	-0.074768	-0.071411	0.093079	-0.019379	0.2565	-0.010223	-0.11429	-0.026245	0.001373	-0.013733
14.79	0.007935	-0.20538	-0.039825	0.008698	-0.076599	0.002899	-0.12955	0.011139	-0.009155	-0.009308	-0.046387	-0.013428	-0.057831	-0.057983	-0.010071	0.000916	0.028534	-0.19699	0.23758	0.095367	-0.021362	0.004883	0.20905	-0.075531	0.046844	-0.021515	0.21759	-0.00473	-0.12436	-0.048828	0.014648	-0.013275
14.791	0.006866	-0.20493	-0.019684	-0.00885	-0.024261	-0.002441	-0.1181	0.014954	-0.010071	-0.014648	-0.097656	-0.000458	-0.053711	-0.044098	-0.016022	-0.003052	0.034943	-0.24765	-0.019836	-0.015717	-0.049133	0.022278	0.31891	-0.014496	-0.060425	-0.017548	0.22232	-0.001373	-0.11047	0.010071	0.001068	-0.014801
14.792	0.010376	-0.20279	-0.012512	-0.010681	0.06134	0.010834	-0.1178	0.005188	-0.009766	-0.021973	-0.11887	-0.01709	-0.049896	-0.05661	-0.03067	-0.003357	0.028381	-0.2478	-0.072784	-0.066833	-0.081482	0.027618	0.16434	-0.0383	-0.089874	-0.014648	0.392	-0.000153	-0.12802	-0.044098	0.004578	-0.018463
14.793	0.006409	-0.16876	-0.041046	0.018158	0.035706	0.030975	-0.14847	0.004883	-0.016327	-0.037689	-0.084991	-0.009766	-0.018158	-0.054169	0.00412	0.005798	0.025177	-0.24658	-0.083466	-0.068207	-0.070801	0.029449	0.037537	-0.14389	-0.089417	-0.011444	0.46631	0	-0.15778	-0.064697	0.003662	-0.010986
14.794	0.002289	-0.19211	-0.062714	0.00824	-0.020294	0.058746	-0.15961	0.012512	-0.012207	-0.058136	0.07843	-0.010529	0.034943	-0.031281	0.052032	0.005341	0.012817	-0.19379	-0.13123	0.041809	0.042114	-0.020142	0.10117	-0.074921	-0.072479	-0.014191	0.58701	-0.003357	-0.21316	0.016327	-0.00061	-0.011292
14.795	0.010071	-0.18967	-0.098114	0.011749	-0.031586	0.048218	-0.15579	0.009308	-0.004272	-0.023956	0.14053	-0.009766	-0.007019	-0.033875	0.045471	0.001068	0.005493	-0.14175	-0.085754	0.072021	0.18509	-0.11353	0.081482	-0.070038	-0.026245	-0.013885	0.69672	-0.000153	-0.23117	0.04303	-0.002441	-0.012054
14.796	0.004272	-0.16632	-0.099335	0.004883	-0.00824	0.024719	-0.16556	0.015106	-0.018311	-0.022736	0.056915	-0.005646	-0.010834	-0.039978	0.009613	0.000153	0.012207	-0.14969	0.10666	-0.067139	0.094604	-0.10559	-0.20813	-0.18372	0.058289	-0.010834	0.23697	-0.005493	-0.057678	-0.18799	0.003204	-0.000916
14.797	-0.000305	-0.17868	-0.09079	0.009766	0.037994	-0.011749	-0.17792	0.014496	0.000153	-0.029602	0.034943	-0.003815	-0.029755	-0.040588	-0.003204	0.005035	-0.003815	-0.13138	0.088348	-0.071106	-0.011597	-0.055389	-0.40237	0.022125	0.1886	-0.00946	-0.51758	-0.001831	0.006409	-0.21866	0.00061	-0.005341
14.798	0.006714	-0.1889	-0.087738	0.004272	0.020752	-0.022736	-0.18387	0.016022	0.012665	-0.024872	0.025024	-0.000458	-0.036316	-0.033875	-0.020599	-0.005798	-0.006409	-0.11292	-0.015106	0.030518	-0.029755	-0.044861	-0.25162	0.11627	0.16312	-0.015564	-0.53223	-0.005188	-0.079651	-0.20111	0.000916	-0.006714
14.799	0.006409	-0.18082	-0.085449	0.007629	0.005646	0.006866	-0.18753	0.012512	0.003815	-0.029602	0.064087	-0.003204	-0.039063	-0.043488	-0.024719	0.001984	0.018768	-0.11902	-0.15213	0.031433	-0.036469	-0.069885	-0.023651	0.087128	0.17197	-0.014648	-0.68481	-0.001221	-0.071716	-0.09201	-0.000458	-0.003357
14.8	0.009613	-0.18997	-0.022736	0.002899	0.00824	0.022888	-0.1886	0.001984	-0.003357	-0.037689	0.091553	0.001221	-0.0177	-0.041504	-0.010529	0.007324	0.028381	-0.12207	-0.22751	0.049591	-0.071411	-0.063934	0.055542	0.06134	0.15762	-0.010376	-0.4892	-0.000458	-0.10437	-0.012817	0.000305	-0.012207
14.801	0.008392	-0.19577	-0.008392	0.000458	0.004578	0.026245	-0.20157	-0.001526	0.009613	-0.061035	-0.01358	0.001068	0.044098	-0.036621	0.041962	0.00412	0.021057	-0.096741	-0.29556	0.045319	-0.052185	-0.054932	0.033722	0.005341	0.086212	-0.014954	-0.19669	-0.002747	-0.090637	-0.020599	0.000153	-0.011139
14.802	0.004578	-0.18921	-0.005646	0.001373	0.019684	0.068054	-0.22201	-0.001831	0.011139	-0.056	-0.045776	0.001221	0.059204	-0.05249	0.021515	-0.005646	0.010986	-0.10895	-0.16556	0.028687	-0.037537	-0.038147	0.033722	-0.021362	0.14618	-0.008087	-0.11398	0.000305	0.02121	-0.026398	0.002747	-0.013885
14.803	-0.004425	-0.17288	-0.048676	0.00061	0.007324	0.079651	-0.21576	0.005493	0.009766	-0.042419	-0.007019	-0.006561	0.03418	-0.047607	0.005798	-0.002594	0.024109	-0.099945	0.011749	0.061493	-0.0383	-0.014954	0.13916	-0.092773	0.52902	-0.006104	0.71686	-0.002899	0.07782	-0.052185	-0.000305	-0.014954
